<svg version="1.1" xmlns="http://www.w3.org/2000/svg" xmlns:xlink="http://www.w3.org/1999/xlink" width="95.99857" height="54.02013" viewBox="0,0,95.99857,54.02013"><defs><radialGradient cx="250.21764" cy="182.53817" r="19" gradientUnits="userSpaceOnUse" id="color-1"><stop offset="0" stop-color="#ffeb9a"/><stop offset="1" stop-color="#5c5537"/></radialGradient><linearGradient x1="253" y1="158.8" x2="253" y2="173.8" gradientUnits="userSpaceOnUse" id="color-2"><stop offset="0" stop-color="#00408e"/><stop offset="1" stop-color="#122944"/></linearGradient><linearGradient x1="240.6" y1="150.6" x2="240.6" y2="169.2" gradientUnits="userSpaceOnUse" id="color-3"><stop offset="0" stop-color="#4699ff"/><stop offset="1" stop-color="#00408e"/></linearGradient><linearGradient x1="278.31745" y1="169.82013" x2="278.31745" y2="192.65067" gradientUnits="userSpaceOnUse" id="color-4"><stop offset="0" stop-color="#ff4444"/><stop offset="1" stop-color="#ff4040"/></linearGradient><linearGradient x1="266.75836" y1="190.02013" x2="266.75836" y2="202.62013" gradientUnits="userSpaceOnUse" id="color-5"><stop offset="0" stop-color="#ffffff"/><stop offset="1" stop-color="#000000"/></linearGradient><linearGradient x1="276.55836" y1="190.42013" x2="276.55836" y2="195.02013" gradientUnits="userSpaceOnUse" id="color-6"><stop offset="0" stop-color="#000000"/><stop offset="1" stop-color="#000000"/></linearGradient><linearGradient x1="276.55836" y1="190.42013" x2="276.55836" y2="195.02013" gradientUnits="userSpaceOnUse" id="color-7"><stop offset="0" stop-color="#000000"/><stop offset="1" stop-color="#000000"/></linearGradient></defs><g transform="translate(-218.7,-149.6)"><g data-paper-data="{&quot;isPaintingLayer&quot;:true}" fill-rule="nonzero" stroke-linecap="butt" stroke-linejoin="miter" stroke-miterlimit="10" stroke-dasharray="" stroke-dashoffset="0" style="mix-blend-mode: normal"><path d="M221,180c0,-10.49341 8.50659,-19 19,-19c10.49341,0 19,8.50659 19,19c0,10.49341 -8.50659,19 -19,19c-10.49341,0 -19,-8.50659 -19,-19z" fill="url(#color-1)" stroke="#000000" stroke-width="2"/><path d="M269.5,166.3c0,4.14213 -7.3873,7.5 -16.5,7.5c-9.1127,0 -16.5,-3.35787 -16.5,-7.5c0,-4.14213 7.3873,-7.5 16.5,-7.5c9.1127,0 16.5,3.35787 16.5,7.5z" fill="url(#color-2)" stroke="#000000" stroke-width="2"/><path d="M261.5,159.9c0,5.13625 -9.35725,9.3 -20.9,9.3c-11.54275,0 -20.9,-4.16375 -20.9,-9.3c0,-5.13625 9.35725,-9.3 20.9,-9.3c11.54275,0 20.9,4.16375 20.9,9.3z" fill="url(#color-3)" stroke="#000000" stroke-width="2"/><path d="M263.28647,160.65172c1.76777,1.76777 0,3.53553 0,3.53553l-0.82558,0.74139c-6.01617,3.80088 -13.15312,5.38355 -20.20351,5.787c0,0 -2.49615,0.13868 -2.63483,-2.35748c-0.13868,-2.49615 2.35748,-2.63483 2.35748,-2.63483c6.15911,-0.33084 12.55682,-1.6502 17.79649,-5.013l-0.02558,-0.05861c0,0 1.76777,-1.76777 3.53553,0z" fill="#0061d8" stroke="none" stroke-width="0.5"/><text transform="translate(225.51536,162.3766) rotate(-8.9214) scale(0.18868,0.18868)" font-size="40" xml:space="preserve" fill="#ffffff" fill-rule="nonzero" stroke="#000000" stroke-width="2" stroke-linecap="butt" stroke-linejoin="miter" stroke-miterlimit="10" stroke-dasharray="" stroke-dashoffset="0" font-family="Marker" font-weight="normal" text-anchor="start" style="mix-blend-mode: normal"><tspan x="0" dy="0">Culver's</tspan></text><path d="M260.92085,165.3997c0,-1.38071 1.11929,-2.5 2.5,-2.5c1.38071,0 2.5,1.11929 2.5,2.5c0,1.38071 -1.11929,2.5 -2.5,2.5c-1.38071,0 -2.5,-1.11929 -2.5,-2.5z" fill="#efff00" stroke="none" stroke-width="0.5"/><path d="M255.72085,167.1997c0,-1.38071 1.11929,-2.5 2.5,-2.5c1.38071,0 2.5,1.11929 2.5,2.5c0,1.38071 -1.11929,2.5 -2.5,2.5c-1.38071,0 -2.5,-1.11929 -2.5,-2.5z" fill="#efff00" stroke="none" stroke-width="0.5"/><path d="M293.46038,171.41662l0.38837,0.09491c2.55789,-2.17225 5.25899,-3.83838 8.19817,-5.48383c0.6567,-0.36764 2.89046,-1.99886 3.64955,-1.66587c0.59403,0.26058 0.93894,1.00175 1.04489,1.64172c0.10146,0.61283 -0.29025,1.20889 -0.47476,1.80202c-0.26543,0.85325 -0.71612,2.65637 -1.43825,3.74014c0.18169,-0.00372 0.36355,-0.00661 0.54248,-0.02348c0.40182,-0.00031 2.93209,-0.00264 3.01608,-0.00068c1.09414,0.02543 2.2164,-0.09505 3.27907,0.16672c0.97716,0.2407 2.3499,0.95606 2.28003,2.26365c-0.0303,0.56706 -0.63857,0.95187 -1.05616,1.33669c-1.53774,1.4171 -3.42455,2.31289 -4.97285,3.82808c-0.62737,0.61395 -1.06869,1.39495 -1.65361,2.04946c-0.09601,0.10743 -0.49356,0.05536 -0.39965,0.16463c0.17125,0.19927 0.55631,0.06523 0.74987,0.2429c1.07703,0.9886 1.66656,2.39008 2.70438,3.42673l0.68502,0.54801c0.20979,0.16491 0.34454,0.42098 0.34454,0.70853c0,0.49745 -0.40326,0.90072 -0.90072,0.90072h-1.0088v-0.16915c-1.3061,0.19687 -2.60213,0.19104 -3.9523,0.17779c1.1474,1.62047 2.1921,3.44043 2.77415,5.24925c0.39097,1.21499 0.77686,2.4761 -1.20178,2.80977c-0.85397,0.14401 -3.08116,-1.5272 -3.7794,-2.04975c-0.03258,-0.02438 -0.95512,-0.77389 -1.42472,-1.23678c-0.04468,0.3895 -0.42097,0.98914 -0.68376,1.2642c-0.44924,0.47022 -1.00251,0.82865 -1.50377,1.24298c-0.61046,0.46263 -2.90516,2.98103 -3.7692,2.789c-1.32478,-0.29442 -1.32285,-1.89447 -1.58993,-2.7953c-1.06902,-3.6057 -1.1328,-7.4395 -0.60469,-11.19238l-0.00901,-0.7339c-0.00004,-0.00224 -0.00004,-0.00341 -0.00004,-0.00341c0,-3.74803 -0.40062,-7.55968 0.7668,-11.09338zM294.48596,183.50206c-0.3641,2.50624 -0.65529,5.83987 -0.15325,8.33934c0.0459,0.22853 0.68425,2.23049 0.8545,3.15282c0.253,-0.31104 0.73628,-0.69837 0.98536,-0.91317c0.43737,-0.37716 0.91898,-0.69976 1.37848,-1.04964c0.62089,-0.5019 1.30433,-0.98906 1.71086,-1.67619c0.28948,-0.48928 0.29565,-1.30022 0.83195,-1.48882c0.51157,-0.1799 0.98966,0.44388 1.47982,0.67584c1.11116,0.52583 3.00398,1.58532 4.01835,2.54499c-0.00411,-0.0065 -0.0078,-0.01272 -0.01102,-0.01862c-0.3719,-0.68128 -0.66175,-1.40427 -0.98646,-2.10926c-0.65928,-1.43136 -1.54201,-2.7726 -2.51861,-4.00689c-0.13613,-0.1068 -0.2521,-0.26917 -0.29005,-0.51606c-0.04309,-0.16705 -0.04898,-0.3714 0.06098,-0.57674c0.09166,-0.21414 0.25491,-0.3372 0.41226,-0.40791c0.21717,-0.12498 0.41698,-0.13554 0.58575,-0.09551h0.40506c0.77431,0 2.62799,-0.23593 3.93941,-0.09467c-0.60602,-0.79411 -1.13551,-1.6261 -1.82676,-2.39172c-0.38966,-0.43159 -1.14399,-0.6301 -1.26773,-1.19824c-0.11772,-0.5405 0.39821,-1.03733 0.67674,-1.51525c0.96994,-1.6643 2.77988,-3.50488 4.30427,-4.66203c0.29162,-0.22137 2.79512,-1.30813 3.07749,-1.71993c0.17904,-0.26111 -0.57791,-0.28009 -0.89048,-0.3304c-0.37514,-0.06038 -0.75962,-0.02273 -1.13926,-0.03855c-1.56039,-0.06498 -3.10969,-0.08235 -4.67115,-0.08365c-0.73823,0.06479 -2.98099,0.50771 -3.4723,-0.56814c-0.14329,-0.31378 1.78348,-3.37664 2.01751,-3.97771c0.19783,-0.50808 0.37318,-1.02465 0.55901,-1.53724c0.05178,-0.14284 0.13263,-0.38221 0.21746,-0.61422c-0.54694,0.4365 -1.56405,0.81654 -1.84725,0.97508c-2.89145,1.61869 -5.5393,3.24705 -8.04952,5.40242c-0.73568,3.03771 -0.38236,6.33431 -0.38236,9.508c0,0 0,0.00065 -0.00002,0.00192z" fill="#efff00" stroke="#ffc500" stroke-width="1.5"/><path d="M294.45629,182.51955c0.00002,-0.00127 0.00002,-0.00193 0.00002,-0.00193c0,-3.17369 -0.34326,-6.50506 0.39242,-9.54276c2.51022,-2.15537 5.18614,-3.79606 8.07759,-5.41475c0.2832,-0.15854 1.30546,-0.53832 1.8524,-0.97482c-0.08482,0.23201 -0.17439,0.54981 -0.22617,0.69265c-0.18584,0.5126 -0.3599,1.02927 -0.55773,1.53736c-0.23403,0.60107 -2.16349,3.58551 -2.02019,3.89929c0.49132,1.07584 2.75133,0.63433 3.48956,0.56953c1.56146,0.0013 3.12615,0.02767 4.68654,0.09266c0.37964,0.01581 0.76627,-0.01964 1.14141,0.04074c0.31257,0.05031 1.07139,0.07152 0.89235,0.33263c-0.28237,0.41179 -2.84642,1.54908 -3.13804,1.77045c-1.5244,1.15715 -3.26821,2.95693 -4.23816,4.62122c-0.27853,0.47793 -0.80163,1.01546 -0.68391,1.55595c0.12374,0.56814 0.87759,0.76719 1.26725,1.19877c0.69125,0.76563 1.21831,1.60003 1.82433,2.39414c-1.31142,-0.14126 -3.19061,0.10498 -3.96492,0.10498l-0.40857,-0.00006c-0.16877,-0.04002 -0.37338,-0.03006 -0.59056,0.09492c-0.15736,0.0707 -0.32305,0.19322 -0.41471,0.40737c-0.10996,0.20534 -0.08529,0.33305 -0.0422,0.5001c0.03796,0.24689 0.15143,0.40876 0.28756,0.51556c0.9766,1.23429 1.84704,2.57537 2.50632,4.00674c0.32472,0.70499 0.61247,1.42835 0.98437,2.10963c0.00321,0.00589 0.02244,0.08948 0.02655,0.09598c-1.01437,-0.95967 -2.92117,-2.01886 -4.03233,-2.5447c-0.49016,-0.23196 -0.97456,-0.85729 -1.48613,-0.67739c-0.5363,0.18861 -0.54352,0.99917 -0.833,1.48846c-0.40653,0.68713 -1.09277,1.17314 -1.71366,1.67504c-0.45949,0.34988 -0.94304,0.67153 -1.38042,1.04869c-0.24908,0.21479 -0.73332,0.6016 -0.98632,0.91265c-0.17025,-0.92234 -0.81392,-2.92788 -0.85982,-3.1564c-0.50203,-2.49947 -0.22393,-5.85222 0.14017,-8.35845z" data-paper-data="{&quot;noHover&quot;:false,&quot;origItem&quot;:[&quot;Path&quot;,{&quot;applyMatrix&quot;:true,&quot;segments&quot;:[[[291.08461,183.42916],[0,0],[-0.46141,3.17603]],[[290.8904,193.99718],[-0.6362,-3.16745],[0.05817,0.2896]],[[291.97325,197.99259],[-0.21575,-1.16883],[0.32062,-0.39417]],[[293.22195,196.83538],[-0.31565,0.27219],[0.55426,-0.47796]],[[294.96883,195.50523],[-0.58229,0.44338],[0.78682,-0.63603]],[[297.13691,193.38108],[-0.51517,0.87076],[0.36684,-0.62004]],[[298.1912,191.49437],[-0.67963,0.23901],[0.64829,-0.22798]],[[300.0665,192.35082],[-0.62116,-0.29395],[1.40811,0.66636]],[[305.15875,195.57595],[-1.28546,-1.21614],[-0.00521,-0.00824]],[[305.14479,195.55236],[0.00407,0.00746],[-0.47129,-0.86335]],[[303.89469,192.8794],[0.4115,0.8934],[-0.83547,-1.81389]],[[300.70299,187.80168],[1.23759,1.56415],[-0.17251,-0.13534]],[[300.33542,187.1477],[0.0481,0.31287],[-0.0546,-0.21169]],[[300.41271,186.41683],[-0.13935,0.26022],[0.11615,-0.27137]],[[300.93514,185.89992],[-0.19941,0.0896],[0.27521,-0.15838]],[[301.67743,185.77887],[-0.21387,-0.05072],[0,0]],[[302.19074,185.77887],[0,0],[0.98124,0]],[[307.18296,185.6589],[-1.66189,-0.17901],[-0.76798,-1.00633]],[[304.868,182.628],[0.87598,0.97024],[-0.4938,-0.54693]],[[303.26147,181.10953],[0.15681,0.71998],[-0.14918,-0.68495]],[[304.11907,179.18933],[-0.35297,0.60565],[1.22916,-2.10908]],[[309.57366,173.28138],[-1.93179,1.4664],[0.36956,-0.28053]],[[313.47359,171.1018],[-0.35783,0.52184],[0.22689,-0.33089]],[[312.34513,170.6831],[0.39611,0.06376],[-0.4754,-0.07652]],[[310.9014,170.63425],[0.4811,0.02004],[-1.9774,-0.08235]],[[304.98189,170.52825],[1.97876,0.00165],[-0.93552,0.08211]],[[300.58163,169.80827],[0.62262,1.36336],[-0.18159,-0.39764]],[[303.13832,164.76753],[-0.29658,0.76171],[0.2507,-0.64387]],[[303.84673,162.81945],[-0.2355,0.64959],[0.06562,-0.18101]],[[304.1223,162.04108],[-0.10749,0.29402],[-0.69311,0.55315]],[[301.78138,163.27675],[0.35889,-0.20091],[-3.66418,2.05128]],[[291.58063,170.12296],[3.18107,-2.73139],[-0.93229,3.84953]],[[291.09608,182.17197],[0,-4.02185],[0,0]],[[291.09606,182.1744],[0.00002,-0.00161],[0,0]]],&quot;closed&quot;:true}]}" fill="#ffa100" stroke="none" stroke-width="0.5"/><path d="M237.6,178.6c0,-1.38071 1.11929,-2.5 2.5,-2.5c1.38071,0 2.5,1.11929 2.5,2.5c0,1.38071 -1.11929,2.5 -2.5,2.5c-1.38071,0 -2.5,-1.11929 -2.5,-2.5z" fill="#000000" stroke="none" stroke-width="0.5"/><path d="M251.6,179.2c0,-1.38071 1.11929,-2.5 2.5,-2.5c1.38071,0 2.5,1.11929 2.5,2.5c0,1.38071 -1.11929,2.5 -2.5,2.5c-1.38071,0 -2.5,-1.11929 -2.5,-2.5z" fill="#000000" stroke="none" stroke-width="0.5"/><path d="M253.39814,192.82698c-1.62698,1.89814 -3.52512,0.27116 -3.52512,0.27116l-0.73456,-0.79045c-5.91081,-2.51827 -13.16157,-0.81127 -18.87692,1.6c0,0 -2.30769,0.96154 -3.26923,-1.34615c-0.96154,-2.30769 1.34615,-3.26923 1.34615,-3.26923c7.10156,-2.92799 15.41935,-4.58931 22.72308,-1.6l2.06544,1.60955c0,0 1.89814,1.62698 0.27116,3.52512z" fill="#000000" stroke="none" stroke-width="0.5"/><path d="M260.25836,190.05067v-15.83054l34.51818,-4.4c0,0 -1.2222,9.4447 -0.94734,13.36662c0.25732,3.67175 2.54734,9.46392 2.54734,9.46392z" fill="url(#color-4)" stroke="#000000" stroke-width="2"/><path d="M260.45836,202.62013v-12.6h12.6v12.6z" fill="url(#color-5)" stroke="#000000" stroke-width="2"/><path d="M273.45836,195.02013v-4.6h6.2v4.6z" fill="url(#color-6)" stroke="url(#color-7)" stroke-width="2"/><text transform="translate(261.85836,186.19858) scale(0.13756,0.32435)" font-size="40" xml:space="preserve" fill="#000000" fill-rule="nonzero" stroke="none" stroke-width="1" stroke-linecap="butt" stroke-linejoin="miter" stroke-miterlimit="10" stroke-dasharray="" stroke-dashoffset="0" font-family="Marker" font-weight="normal" text-anchor="start" style="mix-blend-mode: normal"><tspan x="0" dy="0">BURG 2000</tspan></text></g></g></svg>