<svg version="1.1" xmlns="http://www.w3.org/2000/svg" xmlns:xlink="http://www.w3.org/1999/xlink" width="55.56059" height="109.99587" viewBox="0,0,55.56059,109.99587"><defs><linearGradient x1="239.83333" y1="179.75" x2="239.83333" y2="199.58333" gradientUnits="userSpaceOnUse" id="color-1"><stop offset="0" stop-color="#484848"/><stop offset="1" stop-color="#000000"/></linearGradient></defs><g transform="translate(-206.63174,-92.12101)"><g data-paper-data="{&quot;isPaintingLayer&quot;:true}" fill-rule="nonzero" stroke-linejoin="miter" stroke-miterlimit="10" stroke-dasharray="" stroke-dashoffset="0" style="mix-blend-mode: normal"><path d="M220.5,199.5v-39h39v39z" fill="#efefef" stroke="#000000" stroke-width="5" stroke-linecap="butt"/><path d="M233.58333,199.58333v-12.32128l-5,-7.34538l22.5,-0.16666l-5,7.34538v12.32128z" data-paper-data="{&quot;index&quot;:null}" fill="url(#color-1)" stroke="#000000" stroke-width="5" stroke-linecap="round"/><path d="M220.57073,180.00692v-18.69667" fill="none" stroke="#000000" stroke-width="5" stroke-linecap="round"/><path d="M220.41362,160.83891h38.96448" fill="none" stroke="#000000" stroke-width="5" stroke-linecap="round"/><path d="M259.69233,162.25294v15.24014" fill="none" stroke="#000000" stroke-width="5" stroke-linecap="round"/><path d="M228.42647,175.12252c-1.24349,-0.71056 -2.02784,-1.91673 -2.40125,-3.19801c-0.87116,-2.98919 0.49432,-6.38722 3.48457,-4.85483c1.44824,0.74217 2.23276,6.15794 1.07123,6.82168z" fill="#ffea00" stroke="none" stroke-width="0.5" stroke-linecap="butt"/><path d="M240.05297,166.19465c3.0143,0 4.0296,6.78236 2.15454,7.85382c-0.43488,0.73685 -1.23698,1.23117 -2.15454,1.23117c-1.38071,0 -2.5,-1.11929 -2.5,-2.5c0,-0.2228 0.02915,-0.4388 0.08383,-0.64438c-1.08081,-2.68231 -0.87517,-5.94061 2.41617,-5.94061z" fill="#ffea00" stroke="none" stroke-width="0.5" stroke-linecap="butt"/><path d="M252.01193,166.14435c1.95667,0.97833 0.49008,6.71255 -1.32022,7.747c-0.43488,0.73685 -1.23698,1.23117 -2.15454,1.23117c-1.38071,0 -2.5,-1.11929 -2.5,-2.5c0,-0.4436 0.11553,-0.86021 0.31815,-1.22139c0.34585,-3.00376 4.19215,-5.98901 5.6566,-5.25678z" fill="#ffea00" stroke="none" stroke-width="0.5" stroke-linecap="butt"/><text transform="translate(206.90174,108.99101) scale(0.5,0.5)" font-size="40" xml:space="preserve" fill="#ffea00" fill-rule="nonzero" stroke="none" stroke-width="1" stroke-linecap="butt" stroke-linejoin="miter" stroke-miterlimit="10" stroke-dasharray="" stroke-dashoffset="0" font-family="Marker" font-weight="normal" text-anchor="start" style="mix-blend-mode: normal"><tspan x="0" dy="0">Light</tspan><tspan x="0" dy="46.15px">Cost:</tspan></text></g></g></svg>