<svg version="1.1" xmlns="http://www.w3.org/2000/svg" xmlns:xlink="http://www.w3.org/1999/xlink" width="76.62179" height="86.23294" viewBox="0,0,76.62179,86.23294"><g transform="translate(-200.85957,-130.0254)"><g data-paper-data="{&quot;isPaintingLayer&quot;:true}" fill-rule="nonzero" stroke-linecap="butt" stroke-linejoin="miter" stroke-miterlimit="10" stroke-dasharray="" stroke-dashoffset="0" style="mix-blend-mode: normal"><path d="M205.35193,214.64807v-69.29614h69.29614v69.29614z" fill="#e0e0e0" stroke="#000000" stroke-width="2.5"/><path d="M223.95786,183.53471c0,-7.13291 5.78238,-12.91529 12.91529,-12.91529c7.13291,0 12.91529,5.78238 12.91529,12.91529c0,7.13291 -5.78238,12.91529 -12.91529,12.91529c-7.13291,0 -12.91529,-5.78238 -12.91529,-12.91529z" fill="#ffeb9a" stroke="#000000" stroke-width="2"/><path d="M256.92583,174.22211c0,2.81562 -5.02153,5.09814 -11.21591,5.09814c-6.19438,0 -11.21591,-2.28252 -11.21591,-5.09814c0,-2.81562 5.02153,-5.09814 11.21591,-5.09814c6.19438,0 11.21591,2.28252 11.21591,5.09814z" fill="#0071ff" stroke="#000000" stroke-width="2"/><path d="M251.48782,169.8717c0,3.49138 -6.36061,6.3217 -14.20682,6.3217c-7.84621,0 -14.20682,-2.83032 -14.20682,-6.3217c0,-3.49138 6.3606,-6.32169 14.20682,-6.32169c7.84621,0 14.20682,2.83032 14.20682,6.32169z" fill="#0071ff" stroke="#000000" stroke-width="2"/><path d="M230.39558,182.96768c0,-0.93854 0.76084,-1.69938 1.69938,-1.69938c0.93854,0 1.69939,0.76084 1.69939,1.69938c0,0.93854 -0.76085,1.69938 -1.69939,1.69938c-0.93854,0 -1.69938,-0.76084 -1.69938,-1.69938z" fill="#000000" stroke="none" stroke-width="0.5"/><path d="M244.75827,182.99091c0,-0.93854 0.76084,-1.69938 1.69938,-1.69938c0.93854,0 1.69938,0.76084 1.69938,1.69938c0,0.93854 -0.76084,1.69938 -1.69938,1.69938c-0.93854,0 -1.69938,-0.76084 -1.69938,-1.69938z" fill="#000000" stroke="none" stroke-width="0.5"/><path d="M245.98056,192.25388c-1.10594,1.29027 -2.39621,0.18433 -2.39621,0.18433l-0.49931,-0.53731c-4.01789,-1.7118 -8.94661,-0.55146 -12.83163,1.0876c0,0 -1.56866,0.65361 -2.22227,-0.91505c-0.65361,-1.56866 0.91505,-2.22226 0.91505,-2.22226c4.8273,-1.99031 10.48134,-3.1196 15.44606,-1.0876l1.40399,1.0941c0,0 1.29026,1.10594 0.18432,2.3962z" fill="#000000" stroke="none" stroke-width="0.5"/><path d="M252.70216,170.38268c1.20165,1.20165 0,2.40328 0,2.40328l-0.56119,0.50397c-4.08951,2.58365 -8.94086,3.65948 -13.73337,3.93372c0,0 -1.69676,0.09427 -1.79103,-1.6025c-0.09427,-1.69676 1.6025,-1.79103 1.6025,-1.79103c4.18667,-0.22489 8.53553,-1.12173 12.0972,-3.4076l-0.01739,-0.03984c0,0 1.20164,-1.20165 2.40328,0z" fill="#0061d8" stroke="none" stroke-width="0.5"/><text transform="translate(227.02718,171.55517) rotate(-8.92176) scale(0.12825,0.12825)" font-size="40" xml:space="preserve" fill="#ffffff" fill-rule="nonzero" stroke="#000000" stroke-width="2" stroke-linecap="butt" stroke-linejoin="miter" stroke-miterlimit="10" stroke-dasharray="" stroke-dashoffset="0" font-family="Marker" font-weight="normal" text-anchor="start" style="mix-blend-mode: normal"><tspan x="0" dy="0">Culver's</tspan></text><text transform="translate(202.00791,142.65681) scale(0.38278,0.38277)" font-size="40" xml:space="preserve" fill="#ffffff" fill-rule="nonzero" stroke="#000000" stroke-width="2" stroke-linecap="butt" stroke-linejoin="miter" stroke-miterlimit="10" stroke-dasharray="" stroke-dashoffset="0" font-family="Marker" font-weight="normal" text-anchor="start" style="mix-blend-mode: normal"><tspan x="0" dy="0">Hire Crew </tspan><tspan x="0" dy="46.150000000000006px">Member</tspan></text><text transform="translate(222.1081,210.51679) scale(0.38278,0.38277)" font-size="40" xml:space="preserve" fill="#ffffff" fill-rule="nonzero" stroke="#000000" stroke-width="2" stroke-linecap="butt" stroke-linejoin="miter" stroke-miterlimit="10" stroke-dasharray="" stroke-dashoffset="0" font-family="Marker" font-weight="normal" text-anchor="start" style="mix-blend-mode: normal"><tspan x="0" dy="0">Cost</tspan></text></g></g></svg>